<?xml version="1.0" encoding="UTF-8"?>
<svg version="1.1" xmlns="http://www.w3.org/2000/svg" width="218" height="220">
<path d="M0 0 C9.41560455 0.34872609 17.15250543 5.11891245 23.52734375 11.9609375 C28.39793002 18.70482618 30.16121086 26.83523612 29 35 C27.33215019 42.78677379 24.27058254 50.022407 21 57.25 C20.66806641 58.001604 20.33613281 58.75320801 19.99414062 59.52758789 C19 61.640625 19 61.640625 17 65 C14.875 65.70996094 14.875 65.70996094 13 66 C11.82073416 63.64146832 11.86950132 62.21516684 11.8581543 59.58544922 C11.85111984 58.67044647 11.84408539 57.75544373 11.83683777 56.81271362 C11.83267349 55.820065 11.82850922 54.82741638 11.82421875 53.8046875 C11.80100909 51.70571926 11.7768913 49.60676091 11.75195312 47.5078125 C11.71691978 44.19654849 11.6875433 40.88564503 11.67407227 37.57421875 C11.65853037 34.37976147 11.61826694 31.18636274 11.57421875 27.9921875 C11.57612717 27.01168427 11.57803558 26.03118103 11.58000183 25.02096558 C11.45467684 17.92355326 10.12052279 12.22834573 5.078125 7.01171875 C4.47484375 6.57472656 3.8715625 6.13773438 3.25 5.6875 C1.390625 4.32421875 1.390625 4.32421875 0 3 C0 2.01 0 1.02 0 0 Z " fill="#FCE390" transform="translate(58,34)"/>
<path d="M0 0 C0.99 0.33 1.98 0.66 3 1 C2.29033892 9.98904034 -2.87160228 18.60597904 -9.63671875 24.40234375 C-16.37653044 29.27705032 -24.21987037 30.38593896 -32.38671875 29.7265625 C-43.91706867 27.70184883 -54.11433874 22.0718073 -64 16 C-63.67 15.01 -63.34 14.02 -63 13 C-62.43338654 12.99857498 -61.86677307 12.99714996 -61.2829895 12.99568176 C-55.34442763 12.97587739 -49.40687885 12.92137613 -43.46875 12.84741211 C-41.25756112 12.82432508 -39.04626371 12.80985839 -36.83496094 12.80444336 C-33.64189754 12.79508587 -30.45051925 12.7539456 -27.2578125 12.70703125 C-26.28135773 12.7109639 -25.30490295 12.71489655 -24.29885864 12.71894836 C-16.56312448 12.55733324 -9.74647713 10.60919459 -4.05325317 5.12458801 C-2.62713282 3.47851895 -1.30127024 1.74644164 0 0 Z " fill="#FBE18E" transform="translate(181,58)"/>
<path d="M0 0 C0.75152344 0.33193359 1.50304687 0.66386719 2.27734375 1.00585938 C7.55920935 3.49058173 7.55920935 3.49058173 8.52246094 6.0625 C8.63509277 7.0215625 8.63509277 7.0215625 8.75 8 C7.1794681 9.5705319 5.61462218 9.14025535 3.43310547 9.15771484 C2.5147995 9.16797699 1.59649353 9.17823914 0.65036011 9.18881226 C-0.85106033 9.19976425 -0.85106033 9.19976425 -2.3828125 9.2109375 C-4.4895909 9.23902126 -6.59636162 9.26768581 -8.703125 9.296875 C-12.03417627 9.3380475 -15.36508655 9.3749213 -18.69628906 9.40136719 C-21.90460151 9.42906622 -25.11225559 9.47495735 -28.3203125 9.5234375 C-29.30911407 9.52669037 -30.29791565 9.52994324 -31.31668091 9.53329468 C-38.49271676 9.66013971 -43.52127837 10.51934397 -49 15.5 C-50.29281809 16.93646455 -51.5849256 18.37357086 -52.875 19.8125 C-54.25 21 -54.25 21 -57.25 21 C-56.90789432 13.30262209 -53.45397975 6.51609707 -48.28515625 0.84375 C-32.94875705 -13.05026233 -17.09763109 -7.74422114 0 0 Z " fill="#FCE48D" transform="translate(90.25,138)"/>
<path d="M0 0 C0.66 0.33 1.32 0.66 2 1 C2.01395309 1.60863892 2.02790619 2.21727783 2.0422821 2.84436035 C2.1927998 9.20487282 2.37678302 15.56380402 2.57983398 21.92285156 C2.65117298 24.29305333 2.71410448 26.66352421 2.76831055 29.03417969 C2.84792004 32.45093328 2.95818196 35.86556269 3.07421875 39.28125 C3.09215988 40.33364868 3.11010101 41.38604736 3.12858582 42.47033691 C3.39360006 49.15473842 4.58424607 53.85721621 9 59 C10.07785284 59.96763812 11.1817084 60.90729249 12.3125 61.8125 C13.199375 62.534375 14.08625 63.25625 15 64 C15 64.99 15 65.98 15 67 C6.94417814 66.47462031 -1.34083985 62.81635905 -7 57 C-13.76488143 47.10138674 -15.60416988 38.82293432 -13.421875 26.8203125 C-11.07465644 18.26363391 -6.43693552 6.43693552 0 0 Z " fill="#FBE38F" transform="translate(144,117)"/>
<path d="M0 0 C5.32490375 3.44552596 6.60130542 8.00052324 8 14 C9.06723388 23.29178853 8.74748612 31.35475903 3 39 C-5.07994456 48.38095259 -18.98467144 55.34295173 -31 58 C-33.80859375 57.59375 -33.80859375 57.59375 -36 57 C-33.90147734 52.92639719 -31.22327891 50.10886876 -27.96923828 46.96948242 C-26.13648191 45.13649883 -24.43966947 43.2528519 -22.75390625 41.28515625 C-18.38582 36.25215924 -13.78506303 31.45046166 -9.16601562 26.6484375 C-8.20791992 25.63910156 -8.20791992 25.63910156 -7.23046875 24.609375 C-6.65707764 24.01092773 -6.08368652 23.41248047 -5.49291992 22.79589844 C-1.07926512 17.48652072 -0.92851847 11.19836916 -1 4.5625 C-1 1 -1 1 0 0 Z " fill="#FCE090" transform="translate(125,20)"/>
<path d="M0 0 C10.63136872 7.65846318 15.42083494 16.99380329 19.9375 28.9375 C20.25678467 29.77909668 20.57606934 30.62069336 20.9050293 31.48779297 C21.19289307 32.28459473 21.48075684 33.08139648 21.77734375 33.90234375 C22.03765381 34.61898193 22.29796387 35.33562012 22.56616211 36.07397461 C23 38 23 38 22 41 C17.91620659 39.64827153 15.62316481 37.93063758 12.6875 34.8125 C9.94240857 31.9680796 7.20555088 29.24026803 4.1875 26.6875 C1.13213343 24.08952363 -1.65226964 21.32338242 -4.42773438 18.43579102 C-11.28521938 11.35575719 -15.70949241 6.92242544 -25.90112305 6.74511719 C-28.93998843 6.75218678 -31.96446947 6.85770951 -35 7 C-35.33 6.34 -35.66 5.68 -36 5 C-33.75178853 2.48602552 -31.65302641 1.19876679 -28.5625 -0.125 C-27.80066406 -0.45757812 -27.03882813 -0.79015625 -26.25390625 -1.1328125 C-17.91889103 -4.33969877 -7.93248919 -4.30934534 0 0 Z " fill="#FCE48E" transform="translate(55,87)"/>
<path d="M0 0 C-0.33 1.65 -0.66 3.3 -1 5 C-1.99 5.33 -2.98 5.66 -4 6 C-4.69964489 7.31632794 -5.36300973 8.65223681 -6 10 C-7.48046875 11.640625 -7.48046875 11.640625 -9.1875 13.25 C-11.67452263 15.66042029 -14.00640807 18.11175214 -16.25 20.75 C-18.77038172 23.70572038 -21.44219924 26.40283564 -24.26147461 29.07470703 C-30.25480716 34.81344336 -33.76464276 38.9045158 -34.15625 47.3828125 C-34.18401671 50.59680886 -34.13215863 53.78903489 -34 57 C-34.99 57 -35.98 57 -37 57 C-41.59480056 49.71169566 -44.9567867 41.77054472 -44 33 C-41.88373056 23.9771458 -37.91843372 16.67506141 -30.21484375 11.3671875 C-21.59797299 6.04813147 -10.2781072 0 0 0 Z " fill="#FCE18F" transform="translate(127,140)"/>
<path d="M0 0 C5.41746307 0.30152856 7.81800339 3.39221886 11.3125 7.125 C12.47082632 8.32338605 13.63097228 9.52001606 14.79296875 10.71484375 C15.34774902 11.28831543 15.9025293 11.86178711 16.47412109 12.45263672 C18.85378422 14.8658055 21.38571154 17.06518756 23.9765625 19.24609375 C25.57401743 20.63076029 27.12128215 22.07332171 28.6484375 23.53515625 C36.31946652 30.8383962 40.8816506 34.10056615 51.5 34.1875 C53.33377912 34.1398399 55.16745615 34.08246447 57 34 C57 35.32 57 36.64 57 38 C48.42860802 42.59181713 40.1725667 45.68140288 30.3671875 43.3828125 C20.49484759 40.27536289 13.51304561 34.20736826 8.484375 25.1953125 C0 6.93157895 0 6.93157895 0 0 Z " fill="#FCE38E" transform="translate(139,90)"/>
<path d="M0 0 C2.625 0.25 2.625 0.25 4.28515625 1.48828125 C6.02185989 3.77181869 5.95272594 4.85377024 5.6875 7.6875 C4.4279443 16.85277767 0.08550073 25.12857414 -7.2265625 30.84375 C-11.71258107 33.78005306 -15.9649962 36.446735 -21.4375 36 C-22.076875 35.7525 -22.71625 35.505 -23.375 35.25 C-20.375 30.25 -20.375 30.25 -18.8671875 28.23828125 C-16.68260775 23.86340296 -16.36744497 19.44546874 -15.8125 14.625 C-15.58915311 12.73612343 -15.35897482 10.84803874 -15.12109375 8.9609375 C-15.02497803 8.12868652 -14.9288623 7.29643555 -14.82983398 6.43896484 C-14.375 4.25 -14.375 4.25 -12.375 1.25 C-8.38783671 0.20536322 -4.10053363 0.30374323 0 0 Z " fill="#FCE38E" transform="translate(79.375,147.75)"/>
<path d="M0 0 C0.99 0 1.98 0 3 0 C3.07476562 0.70125 3.14953125 1.4025 3.2265625 2.125 C4.22632659 9.33898403 6.16574481 13.61847064 11 19 C12.08489109 20.24864824 13.16828256 21.49860139 14.25 22.75 C14.72953125 23.28109375 15.2090625 23.8121875 15.703125 24.359375 C17.66433791 26.84042748 19.10587695 28.74425019 18.83203125 31.9921875 C17.80582578 34.46857065 16.46615561 36.12163201 14.6875 38.125 C13.79611328 39.14980469 13.79611328 39.14980469 12.88671875 40.1953125 C11.01140418 41.98909166 9.3714805 42.98439908 7 44 C0.84653046 40.01834324 -2.72446126 33.9766796 -4.9296875 27.1015625 C-6.97651958 17.47387086 -4.92786719 8.44777232 0 0 Z " fill="#FCE191" transform="translate(90,19)"/>
<path d="M0 0 C8.70749078 -0.6732596 14.59970411 0.30813033 22 5 C22.9075 5.556875 23.815 6.11375 24.75 6.6875 C29.26346704 11.32634112 34.82342946 19.11544815 35.125 25.75 C35.08375 26.4925 35.0425 27.235 35 28 C31.11438576 27.42435345 28.95386643 25.48746646 26 23 C22.28231926 21.14115963 17.68146312 21.29033759 13.56054688 20.92578125 C8.50585904 20.40303527 4.53230343 19.33963264 0 17 C-1.42597611 14.14804778 -1.1320252 11.67538825 -1.125 8.5 C-1.12757813 7.3346875 -1.13015625 6.169375 -1.1328125 4.96875 C-1 2 -1 2 0 0 Z " fill="#FCE38D" transform="translate(149,133)"/>
<path d="M0 0 C0.93972656 0.63228516 0.93972656 0.63228516 1.8984375 1.27734375 C3.12433594 2.09912109 3.12433594 2.09912109 4.375 2.9375 C5.18710937 3.48277344 5.99921875 4.02804688 6.8359375 4.58984375 C9.83490382 6.54404382 11.94299682 7.21427158 15.46484375 7.68359375 C16.78838867 7.86825195 16.78838867 7.86825195 18.13867188 8.05664062 C20.00020312 8.30995437 21.86218613 8.55997069 23.72460938 8.80664062 C24.60826172 8.93103516 25.49191406 9.05542969 26.40234375 9.18359375 C27.21179443 9.29243896 28.02124512 9.40128418 28.85522461 9.51342773 C31 10 31 10 34 12 C35.44573015 16.33719045 35.500664 21.46856654 35 26 C33 29 33 29 30.96875 29.43359375 C22.7971093 29.44652356 16.57606655 27.33819736 9.75 22.875 C3.65471564 16.50265726 0.24430251 9.71011759 -1 1 C-0.67 0.67 -0.34 0.34 0 0 Z " fill="#FCE38E" transform="translate(34,56)"/>
<path d="M0 0 C1.34765625 2.140625 1.34765625 2.140625 2 4 C0.48956808 5.51043192 -0.95728392 5.11166889 -3.0625 5.1875 C-9.78693272 5.88751981 -13.59241446 9.8506413 -18.4765625 14.2109375 C-25.04739951 19.86860683 -25.04739951 19.86860683 -29.625 20.5 C-34.34086214 18.40406127 -38.19982655 15.38693841 -41 11 C-40.95587149 7.81294119 -40.41179155 6.45963066 -38.28515625 4.0859375 C-26.51799932 -4.97208488 -13.52209266 -6.83487991 0 0 Z " fill="#FCE38E" transform="translate(196,89)"/>
<path d="M0 0 C6.32273096 2.13258214 9.13817202 6.25550268 12.046875 12.10546875 C15.67547441 21.50217194 14.61467455 30.62834322 11.265625 39.91796875 C10 42 10 42 7.859375 42.80078125 C6.93898438 42.89939453 6.93898438 42.89939453 6 43 C5.91105469 42.28457031 5.82210937 41.56914062 5.73046875 40.83203125 C4.1513087 32.05008361 0.37793908 27.15899017 -5.50390625 20.8125 C-10.06152253 15.67715771 -10.06152253 15.67715771 -9.91015625 11.55078125 C-8.72954325 8.24202464 -6.98191048 6.58856341 -4.4375 4.1875 C-3.61121094 3.39730469 -2.78492187 2.60710937 -1.93359375 1.79296875 C-1.29550781 1.20128906 -0.65742187 0.60960937 0 0 Z " fill="#FCE38F" transform="translate(118,155)"/>
<path d="M0 0 C-1.0041806 2.16285052 -1.97404486 3.96863754 -3.5 5.8125 C-7.36425486 11.44787167 -7.5421252 18.68022731 -8.12304688 25.30273438 C-8.43100461 28.21862246 -8.90194937 30.77012576 -10.0546875 33.47265625 C-13.14064318 35.89556522 -16.44976431 35.41974869 -20.1875 35.25 C-20.93708984 35.23195312 -21.68667969 35.21390625 -22.45898438 35.1953125 C-24.3065371 35.14824109 -26.15343159 35.07649766 -28 35 C-30.17378769 30.65242461 -28.50184143 24.92084134 -27.3203125 20.3984375 C-23.99123213 10.88257061 -18.14199595 5.77514559 -9.1875 1.4375 C-3.45268924 -1.15089641 -3.45268924 -1.15089641 0 0 Z " fill="#FCE28E" transform="translate(161,34)"/>
<path d="M0 0 C2.67578125 1.96875 2.67578125 1.96875 5.3125 4.5 C6.19550781 5.3353125 7.07851563 6.170625 7.98828125 7.03125 C8.65214844 7.6809375 9.31601562 8.330625 10 9 C9.2770149 13.63321438 6.72247495 15.49473612 3.2421875 18.38671875 C-3.23143479 23.04456893 -11.17839477 24.75279256 -19.02734375 23.52734375 C-24.79391376 22.22291568 -29.38179455 20.72022106 -34 17 C-33.67 16.34 -33.34 15.68 -33 15 C-31.03099202 14.59313108 -29.04861433 14.25036515 -27.0625 13.9375 C-20.436451 12.5337377 -16.88943013 9.95489396 -12.21875 5.15625 C-8.55805878 1.59867685 -5.26040542 -0.97868008 0 0 Z " fill="#FBE38C" transform="translate(52,109)"/>
<path d="M0 0 C2.13769777 0.91561568 3.89018271 1.80711456 5.70703125 3.2578125 C6.70703125 6.0078125 6.70703125 6.0078125 6.70703125 8.2578125 C5.94519531 8.82048828 5.94519531 8.82048828 5.16796875 9.39453125 C1.83353484 11.87350178 -1.45666879 14.35774428 -4.60546875 17.0703125 C-8.63665166 20.35150789 -12.19861289 20.77205425 -17.24609375 20.7421875 C-21.10394977 20.12888731 -24.38109593 18.71898447 -27.85546875 17.0078125 C-28.47526611 16.70810547 -29.09506348 16.40839844 -29.73364258 16.09960938 C-34.03444424 13.83975431 -34.03444424 13.83975431 -35.2578125 11.0859375 C-35.26941406 10.48265625 -35.28101563 9.879375 -35.29296875 9.2578125 C-33.77652916 7.74137291 -32.15180491 7.92532848 -30.04296875 7.6328125 C-25.33509404 6.77071241 -21.85623525 5.03748957 -17.73046875 2.6328125 C-11.3219003 -0.9701268 -7.04136212 -2.27914617 0 0 Z " fill="#FBE48C" transform="translate(35.29296875,98.7421875)"/>
<path d="M0 0 C-0.60223264 3.01778112 -1.54171556 5.00006902 -3.3125 7.5 C-5.54437093 10.92476746 -6.8434039 14.22582754 -8.0625 18.125 C-11.35565778 28.41935935 -11.35565778 28.41935935 -16.078125 31.2421875 C-20.05412581 33.15119451 -23.50977438 34.57938395 -28 34 C-29.903736 26.7411505 -28.73904278 17.51609625 -25.1875 10.875 C-19.16498518 2.95969481 -9.87254696 -0.41196917 0 0 Z " fill="#FBE48D" transform="translate(186,32)"/>
<path d="M0 0 C2.74451641 0.28391549 3.78778232 0.75378629 5.609375 2.8671875 C9.38812938 6.23842916 13.93100468 7.18232416 18.71289062 8.62304688 C24.84955666 10.6038353 28.31126772 13.32132121 31.8125 18.875 C33.16784249 22.44169076 33.22708206 25.21529896 33 29 C26.68336846 31.10554385 18.29404114 29.3130414 12.1875 26.87890625 C5.19648144 22.71027525 2.18654194 16.66269243 0.22265625 8.9453125 C-0.3053113 6.28822093 -0.79408527 3.70140509 -1 1 C-0.67 0.67 -0.34 0.34 0 0 Z " fill="#FBDD90" transform="translate(32,31)"/>
<path d="M0 0 C2.8176295 0.35917035 3.85379148 0.84215768 5.81640625 2.9609375 C6.39261719 3.75757813 6.96882813 4.55421875 7.5625 5.375 C9.92543637 8.63294524 9.92543637 8.63294524 12.63671875 11.58984375 C15.00906402 14.04375963 15.35324279 16.7123175 16 20 C15.65703259 26.3818837 13.93546738 30.90793649 10.9375 36.5 C10.56044922 37.22703125 10.18339844 37.9540625 9.79492188 38.703125 C8.87427046 40.47450493 7.93867864 42.23810661 7 44 C6.01 43.67 5.02 43.34 4 43 C3.26171875 40.4453125 3.26171875 40.4453125 2.6875 37.125 C1.69849457 32.2544141 0.41563688 28.60356977 -2.1875 24.375 C-5.37923821 18.89318963 -6.30973073 14.25655541 -5 8 C-3.64290606 5.05263446 -2.02794576 2.52768953 0 0 Z " fill="#FCE58D" transform="translate(103,175)"/>
<path d="M0 0 C2.6470064 0.88740371 5.12488537 2.01216661 7.625 3.25 C8.24084961 3.54970703 8.85669922 3.84941406 9.49121094 4.15820312 C12.08931092 5.53547391 13.74818464 6.43085635 14.9609375 9.171875 C14.97382813 9.77515625 14.98671875 10.3784375 15 11 C13.41411732 12.58588268 11.50851746 12.34929562 9.3125 12.625 C4.2858197 13.45515396 0.29614869 15.254071 -4.125 17.6875 C-8.86558031 20.22956889 -12.59738185 21.96931383 -18.0234375 20.80078125 C-21.50355133 19.39085371 -24.11469321 17.39419074 -27 15 C-26.17857751 10.28229474 -23.25739358 8.50364709 -19.5625 5.8125 C-18.96373047 5.36197266 -18.36496094 4.91144531 -17.74804688 4.44726562 C-11.6579106 -0.10158196 -7.59278793 -1.1128909 0 0 Z " fill="#FBE18E" transform="translate(202,99)"/>
<path d="M0 0 C0.99 0 1.98 0 3 0 C3.06316406 0.63164063 3.12632813 1.26328125 3.19140625 1.9140625 C4.01799849 7.95253635 5.72463862 12.78630734 8.625 18.125 C11.44535076 23.43440173 13.66630678 27.95963794 12 34 C10.69334562 36.99101354 9.2806063 39.64737455 7 42 C4.828125 42.71875 4.828125 42.71875 3 43 C2.62488281 42.41992188 2.24976562 41.83984375 1.86328125 41.2421875 C-0.53266812 37.58489451 -2.86199173 34.04770644 -5.8125 30.8125 C-9.08075379 26.61045941 -9.02716108 23.57534248 -8.9375 18.375 C-8.01722882 11.95797395 -4.57963113 4.57963113 0 0 Z " fill="#FCE48E" transform="translate(107,0)"/>
<path d="M0 0 C2.75232809 0.17891624 5.45079795 0.43151431 8.1875 0.75 C9.32155273 0.86214844 9.32155273 0.86214844 10.47851562 0.9765625 C16.6746166 1.68591664 21.16644903 3.16644903 25.6875 7.6875 C30.58647792 14.09870262 31.53190402 21.12307452 32 29 C29.16479653 28.56381485 27.66486687 27.77069839 25.25390625 26.12109375 C21.00674346 23.35253505 16.62686082 21.93897693 11.83398438 20.37695312 C7.1526117 18.7453636 4.26235148 16.89771581 1 13 C-0.82674251 8.91157629 -1.31124439 5.46116958 -1 1 C-0.67 0.67 -0.34 0.34 0 0 Z " fill="#FCE18F" transform="translate(153,157)"/>
<path d="M0 0 C2.09044471 7.04608015 -0.03980236 16.94182726 -3.22265625 23.53125 C-8.1775334 29.82491012 -16.47127538 32.22853538 -24 34 C-25.32 34 -26.64 34 -28 34 C-27.56696729 31.1852874 -26.81426065 29.74019757 -25.12890625 27.3828125 C-22.69417258 23.51404304 -21.51469042 19.83507747 -20.1875 15.5 C-18.00695711 8.84427728 -16.2061402 4.74710352 -10 1 C-6.52674819 -0.1577506 -3.63932552 -0.06866652 0 0 Z " fill="#FCE48D" transform="translate(59,152)"/>
<path d="M0 0 C7.244298 2.13766171 13.46718285 5.22684019 20 9 C19.67 10.32 19.34 11.64 19 13 C18.14008705 13.00879936 18.14008705 13.00879936 17.26280212 13.01777649 C11.27620039 13.08189365 5.29012715 13.16636001 -0.69604492 13.26245117 C-2.92774471 13.29562968 -5.15952698 13.32368348 -7.39135742 13.34643555 C-10.60631334 13.38011126 -13.8205182 13.43243485 -17.03515625 13.48828125 C-18.52306419 13.49786613 -18.52306419 13.49786613 -20.04103088 13.50764465 C-27.2188087 13.65871976 -32.2700725 14.51824773 -37.75 19.5 C-39.04281809 20.93646455 -40.3349256 22.37357086 -41.625 23.8125 C-43 25 -43 25 -46 25 C-45.50269348 20.02693484 -44.44697666 16.36200187 -42 12 C-41.01 13.32 -40.02 14.64 -39 16 C-37.02463255 15.65213292 -37.02463255 15.65213292 -35 15 C-34.67 14.34 -34.34 13.68 -34 13 C-31.27055324 12.06447437 -28.75940177 11.88061059 -25.890625 11.90234375 C-25.13652344 11.90556641 -24.38242187 11.90878906 -23.60546875 11.91210938 C-22.82816406 11.92048828 -22.05085938 11.92886719 -21.25 11.9375 C-20.45722656 11.94201172 -19.66445313 11.94652344 -18.84765625 11.95117188 C-16.89840492 11.96291435 -14.94919262 11.98084854 -13 12 C-13 11.34 -13 10.68 -13 10 C-5.74 10 1.52 10 9 10 C8.505 8.515 8.505 8.515 8 7 C7.34 6.67 6.68 6.34 6 6 C6 5.34 6 4.68 6 4 C5.34 4 4.68 4 4 4 C4 3.34 4 2.68 4 2 C2.68 2 1.36 2 0 2 C0 1.34 0 0.68 0 0 Z " fill="#F7CF90" transform="translate(79,134)"/>
<path d="M0 0 C0.99 0.33 1.98 0.66 3 1 C2.34389958 9.31060526 -2.18099355 17.18099355 -8 23 C-10.27923061 24.52265928 -12.54989514 25.75092694 -15 27 C-15 26.01 -15 25.02 -15 24 C-13.68 23.34 -12.36 22.68 -11 22 C-11.5259375 20.6078125 -11.5259375 20.6078125 -12.0625 19.1875 C-13 16 -13 16 -12 13 C-12.66 13.33 -13.32 13.66 -14 14 C-15.54227856 14.08991092 -17.08840895 14.11756961 -18.63330078 14.11352539 C-19.59414581 14.11344986 -20.55499084 14.11337433 -21.54495239 14.11329651 C-22.58457123 14.10813522 -23.62419006 14.10297394 -24.6953125 14.09765625 C-25.75789276 14.0962413 -26.82047302 14.09482635 -27.91525269 14.09336853 C-31.31853009 14.08775834 -34.72174238 14.07520409 -38.125 14.0625 C-40.42838447 14.05748631 -42.73176997 14.05292318 -45.03515625 14.04882812 C-50.69012649 14.0377856 -56.34505859 14.02103752 -62 14 C-62 14.66 -62 15.32 -62 16 C-60.35 16.33 -58.7 16.66 -57 17 C-57 17.66 -57 18.32 -57 19 C-56.01 19.33 -55.02 19.66 -54 20 C-54.66 20.33 -55.32 20.66 -56 21 C-57.9453125 20.00390625 -57.9453125 20.00390625 -60.125 18.5625 C-60.84945312 18.08941406 -61.57390625 17.61632812 -62.3203125 17.12890625 C-62.87460938 16.75636719 -63.42890625 16.38382813 -64 16 C-63.67 15.01 -63.34 14.02 -63 13 C-62.43338654 12.99857498 -61.86677307 12.99714996 -61.2829895 12.99568176 C-55.34442763 12.97587739 -49.40687885 12.92137613 -43.46875 12.84741211 C-41.25756112 12.82432508 -39.04626371 12.80985839 -36.83496094 12.80444336 C-33.64189754 12.79508587 -30.45051925 12.7539456 -27.2578125 12.70703125 C-26.28135773 12.7109639 -25.30490295 12.71489655 -24.29885864 12.71894836 C-16.56312448 12.55733324 -9.74647713 10.60919459 -4.05325317 5.12458801 C-2.62713282 3.47851895 -1.30127024 1.74644164 0 0 Z " fill="#FDD795" transform="translate(181,58)"/>
<path d="M0 0 C3.14952839 0.6998952 6.0652503 1.65160149 9 3 C9.33 3.66 9.66 4.32 10 5 C11.32 5.33 12.64 5.66 14 6 C14 9.3 14 12.6 14 16 C7.15432421 16.28523649 2.15749156 16.13472298 -4 13 C-5.53730734 9.21108091 -4.4375622 6.72074922 -3 3 C-0.03 3.495 -0.03 3.495 3 4 C2.01 2.68 1.02 1.36 0 0 Z " fill="#FCE58D" transform="translate(49,42)"/>
<path d="M0 0 C7.05778188 -0.9074291 12.34601658 0.12670376 18.625 3.25 C19.24068848 3.5497876 19.85637695 3.8495752 20.49072266 4.15844727 C23.08929714 5.53521662 24.74811975 6.43070969 25.9609375 9.171875 C25.97382813 9.77515625 25.98671875 10.3784375 26 11 C24.41411732 12.58588268 22.50851746 12.34929562 20.3125 12.625 C15.28650611 13.4550406 11.29485706 15.25226422 6.875 17.6875 C1.08240648 20.82305606 -2.56222625 21.89967094 -9 20 C-10.73828125 18.4296875 -10.73828125 18.4296875 -12 17 C-10.86111328 17.2165625 -10.86111328 17.2165625 -9.69921875 17.4375 C-8.70535156 17.623125 -7.71148437 17.80875 -6.6875 18 C-5.70136719 18.185625 -4.71523437 18.37125 -3.69921875 18.5625 C-0.96218195 19.07999796 -0.96218195 19.07999796 2 19 C2 18.34 2 17.68 2 17 C2.598125 16.896875 3.19625 16.79375 3.8125 16.6875 C6.39468175 15.87595716 7.31248193 15.10002249 9 13 C9.57323807 10.72838745 9.57323807 10.72838745 9.6875 8.3125 C9.75324219 7.50425781 9.81898438 6.69601563 9.88671875 5.86328125 C9.92410156 5.24839844 9.96148437 4.63351563 10 4 C11.32 4.33 12.64 4.66 14 5 C14.33 4.34 14.66 3.68 15 3 C10.01885239 2.10594786 5.0302076 1.52537724 0 1 C0 0.67 0 0.34 0 0 Z " fill="#F9D292" transform="translate(191,99)"/>
<path d="M0 0 C0.66 0.33 1.32 0.66 2 1 C2 6.94 2 12.88 2 19 C1.34 17.68 0.68 16.36 0 15 C-4.8907969 16.63026563 -6.49074885 19.63608495 -9 24 C-9.66 24.99 -10.32 25.98 -11 27 C-11.17035878 29.80947611 -11.23279109 32.50683616 -11.1875 35.3125 C-11.18685547 36.05951172 -11.18621094 36.80652344 -11.18554688 37.57617188 C-11.1520172 41.81953871 -10.83025786 45.82214243 -10 50 C-13.40579978 47.03843497 -13.8589429 44.64412459 -14.23828125 40.22265625 C-14.59464367 25.04911966 -8.7279191 13.60293501 -1 1 C-0.67 0.67 -0.34 0.34 0 0 Z " fill="#F9E28C" transform="translate(144,117)"/>
<path d="M0 0 C3.28088223 1.42268345 5.3129088 3.1517788 7.75 5.75 C13.87166732 12.00821008 19.89960033 17.78044834 29.0390625 18.109375 C32.02957862 18.1233821 35.0108848 18.08706161 38 18 C38 19.32 38 20.64 38 22 C37 23 37 23 33.25 23.25 C29.33228092 23.22206617 27.29556164 22.13766161 24 20 C21.29046449 19.74803871 21.29046449 19.74803871 19 20 C18.67 19.01 18.34 18.02 18 17 C16.68 17 15.36 17 14 17 C14 16.01 14 15.02 14 14 C13.2575 13.7525 12.515 13.505 11.75 13.25 C8.76976913 11.89534961 7.10080748 10.4898459 5 8 C5 7.34 5 6.68 5 6 C4.360625 5.7525 3.72125 5.505 3.0625 5.25 C1 4 1 4 0.25 1.875 C0.1675 1.25625 0.085 0.6375 0 0 Z " fill="#FAD194" transform="translate(158,106)"/>
<path d="M0 0 C-0.33 1.65 -0.66 3.3 -1 5 C-1.99 5.33 -2.98 5.66 -4 6 C-4.268125 6.5775 -4.53625 7.155 -4.8125 7.75 C-6.55133944 11.04464314 -9.07645336 12.71200698 -12 15 C-11.42655063 12.13275314 -11.1385485 11.1385485 -9 9 C-9 8.34 -9 7.68 -9 7 C-15.435 7.495 -15.435 7.495 -22 8 C-22 8.99 -22 9.98 -22 11 C-23.65 11.66 -25.3 12.32 -27 13 C-27.66 12.34 -28.32 11.68 -29 11 C-24.09061262 7.38592329 -19.09510263 5.30043679 -13.375 3.25 C-12.529375 2.93417969 -11.68375 2.61835938 -10.8125 2.29296875 C-6.89354843 0.86508576 -4.24448478 0 0 0 Z " fill="#FAD68F" transform="translate(127,140)"/>
<path d="M0 0 C4.55744786 3.90638388 7.74745236 8.96942836 8.25 15 C8.1675 15.66 8.085 16.32 8 17 C4.11438576 16.42435345 1.95386643 14.48746646 -1 12 C-4.29841266 10.35079367 -7.9962313 10.33513293 -11.625 9.9375 C-12.42679688 9.84662109 -13.22859375 9.75574219 -14.0546875 9.66210938 C-16.03607868 9.43802347 -18.01799305 9.2185725 -20 9 C-20 8.67 -20 8.34 -20 8 C-13.73 8 -7.46 8 -1 8 C-0.67 5.36 -0.34 2.72 0 0 Z " fill="#FCD295" transform="translate(176,144)"/>
<path d="M0 0 C6.51679693 2.15751341 9.35247111 6.84820561 12.4375 12.75 C13.06041428 15.24165712 12.88447674 16.61191279 12 19 C11.34 18.67 10.68 18.34 10 18 C10 15.69 10 13.38 10 11 C9.34 10.67 8.68 10.34 8 10 C7.360625 9.01 6.72125 8.02 6.0625 7 C4.27704115 3.75756779 4.27704115 3.75756779 1 3 C1 3.66 1 4.32 1 5 C-0.32 5.33 -1.64 5.66 -3 6 C-3 6.66 -3 7.32 -3 8 C-3.66 8 -4.32 8 -5 8 C-5 8.99 -5 9.98 -5 11 C-5.99 11 -6.98 11 -8 11 C-5.83144208 16.55104982 -5.83144208 16.55104982 -2 21 C-2 21.66 -2 22.32 -2 23 C-5.41783867 21.86072044 -5.87349509 21.18617827 -7.75 18.25 C-8.19859375 17.57453125 -8.6471875 16.8990625 -9.109375 16.203125 C-10.29238806 13.27672427 -10.08023225 11.95810436 -9 9 C-6.93359375 6.54296875 -6.93359375 6.54296875 -4.4375 4.1875 C-3.61121094 3.39730469 -2.78492187 2.60710937 -1.93359375 1.79296875 C-1.29550781 1.20128906 -0.65742187 0.60960937 0 0 Z " fill="#FDD498" transform="translate(118,155)"/>
<path d="M0 0 C0.99 0 1.98 0 3 0 C3.66 0.99 4.32 1.98 5 3 C5.8971875 3.433125 5.8971875 3.433125 6.8125 3.875 C9.76867769 5.39531996 11.69315296 7.63244646 14 10 C14.66 10.33 15.32 10.66 16 11 C16 11.66 16 12.32 16 13 C17.97653218 14.0206355 17.97653218 14.0206355 20 14.8125 C22.40558854 16.2408182 22.87063589 17.49926519 24 20 C24.66 20.33 25.32 20.66 26 21 C26.66 20.01 27.32 19.02 28 18 C28.66 20.31 29.32 22.62 30 25 C25.68618762 25 25.46589208 24.96586787 22.5625 22.25 C21.87671875 21.61707031 21.1909375 20.98414062 20.484375 20.33203125 C19.66453125 19.56246094 18.8446875 18.79289062 18 18 C16.92341679 17.02303788 15.84518204 16.04789374 14.765625 15.07421875 C13.61412582 14.02914972 12.4630852 12.9835752 11.3125 11.9375 C10.76601807 11.4434668 10.21953613 10.94943359 9.65649414 10.44042969 C6.10724224 7.17880912 3.01397792 3.76327855 0 0 Z " fill="#FACC92" transform="translate(48,102)"/>
<path d="M0 0 C5.19591612 0.44033187 8.66335081 0.88303339 13 4 C12.34 4.66 11.68 5.32 11 6 C11.26307841 7.95571293 11.26307841 7.95571293 12 10 C13.86783205 16.1223384 14.08011758 20.69444872 13 27 C12.67 27 12.34 27 12 27 C11.90203125 26.13117187 11.8040625 25.26234375 11.703125 24.3671875 C10.63034446 16.09937883 9.42445356 10.68039779 2.75 5.3125 C1.8425 4.549375 0.935 3.78625 0 3 C0 2.01 0 1.02 0 0 Z " fill="#FCD696" transform="translate(58,34)"/>
<path d="M0 0 C6.01784588 5.49674749 6.54229579 13.29794297 7 21 C4.17423035 20.56526621 2.67173481 19.77552109 0.26953125 18.1328125 C-3.46727507 15.69518257 -7.1191722 14.31729109 -11.3125 12.875 C-18.86737152 10.26525696 -18.86737152 10.26525696 -20 8 C-11.14714308 8.76981364 -3.51827281 12.42366003 4 17 C2.56115528 8.36153461 2.56115528 8.36153461 0 0 Z " fill="#F9CB95" transform="translate(178,165)"/>
<path d="M0 0 C1.875 0.1875 1.875 0.1875 4 1 C4.66666667 2.66666667 5.33333333 4.33333333 6 6 C7.91666667 6.83333333 7.91666667 6.83333333 10 7 C10.99 7.33 11.98 7.66 13 8 C13 8.66 13 9.32 13 10 C14.17369141 10.07347656 14.17369141 10.07347656 15.37109375 10.1484375 C16.38300781 10.22320312 17.39492187 10.29796875 18.4375 10.375 C19.44683594 10.44460937 20.45617187 10.51421875 21.49609375 10.5859375 C22.32238281 10.72257813 23.14867187 10.85921875 24 11 C24.33 11.66 24.66 12.32 25 13 C26.953125 12.47916667 28.90625 11.95833333 30.859375 11.4375 C33 11 33 11 37 11 C37 11.66 37 12.32 37 13 C27.04154832 15.84527191 19.37275205 15.78580409 10 11 C1.63853093 4.91559278 1.63853093 4.91559278 0 0 Z " fill="#F9D193" transform="translate(151,119)"/>
<path d="M0 0 C-1.0041806 2.16285052 -1.97404486 3.96863754 -3.5 5.8125 C-7.38013151 11.47102511 -7.54669236 18.74131397 -8.12304688 25.390625 C-8.66852961 30.5800824 -8.66852961 30.5800824 -10.56640625 32.984375 C-11.03949219 33.31953125 -11.51257813 33.6546875 -12 34 C-11.855625 32.96101563 -11.71125 31.92203125 -11.5625 30.8515625 C-10.53256765 23.1995874 -9.66504751 15.74112427 -10 8 C-9.01 8.33 -8.02 8.66 -7 9 C-7 7.35 -7 5.7 -7 4 C-8.65 4 -10.3 4 -12 4 C-8.15336308 0.86570325 -4.95471579 -1.65157193 0 0 Z " fill="#FCD098" transform="translate(161,34)"/>
<path d="M0 0 C0.91145054 2.97022221 1.01801972 5.06485586 0.44140625 8.109375 C0.30283203 8.86347656 0.16425781 9.61757812 0.02148438 10.39453125 C-0.12998047 11.17183594 -0.28144531 11.94914063 -0.4375 12.75 C-0.65889648 13.93916016 -0.65889648 13.93916016 -0.88476562 15.15234375 C-1.24903966 17.10297246 -1.62352512 19.0516893 -2 21 C-2.33 21 -2.66 21 -3 21 C-3.12068471 14.60371021 -2.65486092 8.36150605 -2 2 C-4.31 2 -6.62 2 -9 2 C-9.33 2.99 -9.66 3.98 -10 5 C-10.66 5 -11.32 5 -12 5 C-13.52299523 7.93720508 -14.80100302 10.9168649 -16 14 C-16.66 14 -17.32 14 -18 14 C-18.33 16.31 -18.66 18.62 -19 21 C-19.66 21 -20.32 21 -21 21 C-18.39054966 7.88910318 -18.39054966 7.88910318 -13 3 C-8.55464669 0.10085653 -5.26188885 -0.31571333 0 0 Z " fill="#FCD199" transform="translate(59,152)"/>
<path d="M0 0 C0 0.33 0 0.66 0 1 C-0.76143311 0.98428955 -1.52286621 0.9685791 -2.30737305 0.95239258 C-5.7673394 0.88991547 -9.2271869 0.85096828 -12.6875 0.8125 C-13.88568359 0.78736328 -15.08386719 0.76222656 -16.31835938 0.73632812 C-18.05375977 0.72182617 -18.05375977 0.72182617 -19.82421875 0.70703125 C-21.41882935 0.68346558 -21.41882935 0.68346558 -23.0456543 0.65942383 C-26.39934317 1.04603617 -28.21507403 2.15704768 -31 4 C-31.66 4 -32.32 4 -33 4 C-33.33 4.99 -33.66 5.98 -34 7 C-34.66 7 -35.32 7 -36 7 C-36 7.66 -36 8.32 -36 9 C-36.99 9.33 -37.98 9.66 -39 10 C-37.0536183 4.7447694 -32.60418309 1.91667605 -27.9375 -0.75 C-18.43378058 -4.79413592 -9.55546665 -3.00059514 0 0 Z " fill="#FACC96" transform="translate(79,133)"/>
<path d="M0 0 C7.47660202 -0.49844013 14.24222019 0.58421114 21 4 C22.34765625 6.140625 22.34765625 6.140625 23 8 C21.4828316 9.5171684 19.98676983 9.18722552 17.875 9.3125 C13.02087861 9.77849565 10.04244576 11.33370599 6 14 C7.33810463 9.98568611 9.7330158 8.58636249 13 6 C13.33 5.67 13.66 5.34 14 5 C13.67 4.34 13.34 3.68 13 3 C10.67884289 2.59038404 8.34165499 2.26871451 6 2 C3.99902542 1.6725678 1.99866686 1.34123581 0 1 C0 0.67 0 0.34 0 0 Z " fill="#FCCF9B" transform="translate(175,85)"/>
<path d="M0 0 C0.53367188 0.40992188 1.06734375 0.81984375 1.6171875 1.2421875 C7.27230775 5.33187654 12.08399349 7.16257124 19 8 C19 8.33 19 8.66 19 9 C18.31292969 8.95359375 17.62585938 8.9071875 16.91796875 8.859375 C16.01691406 8.82328125 15.11585937 8.7871875 14.1875 8.75 C12.84751953 8.68039063 12.84751953 8.68039063 11.48046875 8.609375 C8.87400903 8.75817225 8.87400903 8.75817225 7.30078125 10.828125 C6.65689453 11.90320313 6.65689453 11.90320313 6 13 C5.01 14.485 5.01 14.485 4 16 C1.2003808 10.98672841 -0.64672484 6.77016096 -1 1 C-0.67 0.67 -0.34 0.34 0 0 Z " fill="#FCD597" transform="translate(34,56)"/>
<path d="M0 0 C0 3.58912412 -0.66436554 4.10857029 -3 6.6875 C-3.556875 7.31011719 -4.11375 7.93273437 -4.6875 8.57421875 C-5.120625 9.04472656 -5.55375 9.51523438 -6 10 C-4.02 9.67 -2.04 9.34 0 9 C0 8.34 0 7.68 0 7 C0.66 6.67 1.32 6.34 2 6 C2.33 5.01 2.66 4.02 3 3 C5 4 7 5 9 6 C9.33 5.34 9.66 4.68 10 4 C10.99 4.66 11.98 5.32 13 6 C10.11255688 7.20866585 7.21400173 8.38802937 4.3125 9.5625 C3.49587891 9.90474609 2.67925781 10.24699219 1.83789062 10.59960938 C-5.67644333 13.61142744 -5.67644333 13.61142744 -10 12 C-7.49653351 7.14032976 -3.91447559 3.72143296 0 0 Z " fill="#FDD895" transform="translate(99,65)"/>
<path d="M0 0 C2.12399144 0.92380376 3.8815655 1.82052257 5.69140625 3.265625 C6.69140625 6.015625 6.69140625 6.015625 6.69140625 8.265625 C5.42133411 9.2249669 4.15031706 10.18305794 2.87890625 11.140625 C1.81736328 11.94113281 1.81736328 11.94113281 0.734375 12.7578125 C-0.91315672 13.97377281 -2.60483586 15.12978641 -4.30859375 16.265625 C-4.63859375 15.605625 -4.96859375 14.945625 -5.30859375 14.265625 C-4.97859375 13.605625 -4.64859375 12.945625 -4.30859375 12.265625 C-3.31859375 12.265625 -2.32859375 12.265625 -1.30859375 12.265625 C-0.64859375 10.945625 0.01140625 9.625625 0.69140625 8.265625 C1.68140625 8.265625 2.67140625 8.265625 3.69140625 8.265625 C2.57286039 4.53948347 2.57286039 4.53948347 -0.30859375 2.265625 C-6.56207607 1.68076694 -10.74686564 2.21991675 -16.30859375 5.265625 C-18.47265625 4.85546875 -18.47265625 4.85546875 -20.30859375 4.265625 C-13.52557476 -0.22431665 -8.00894603 -2.54768503 0 0 Z " fill="#FCCE98" transform="translate(35.30859375,98.734375)"/>
<path d="M0 0 C1.32 0.33 2.64 0.66 4 1 C4 1.99 4 2.98 4 4 C2.68 4 1.36 4 0 4 C0.99 4.99 1.98 5.98 3 7 C2.67 7.66 2.34 8.32 2 9 C0.68 9 -0.64 9 -2 9 C-2.40608861 15.3958956 -1.79453609 19.3860231 1.22265625 25.0546875 C2 27 2 27 1 30 C-3.64897021 22.84667381 -6.8111551 16.65184881 -5 8 C-3.64290606 5.05263446 -2.02794576 2.52768953 0 0 Z " fill="#FED799" transform="translate(103,175)"/>
<path d="M0 0 C8.95981363 6.80945836 14.25016576 16.07652052 17 27 C16.67 27.66 16.34 28.32 16 29 C14 27 14 27 13.125 23.5 C12.37666455 19.93623752 12.37666455 19.93623752 9.875 18.5625 C9.25625 18.376875 8.6375 18.19125 8 18 C8 17.01 8 16.02 8 15 C7.505 14.525625 7.01 14.05125 6.5 13.5625 C5 12 5 12 5 8 C4.360625 7.525625 3.72125 7.05125 3.0625 6.5625 C1 5 1 5 0.25 2.3125 C0.1675 1.549375 0.085 0.78625 0 0 Z " fill="#FBD696" transform="translate(58,90)"/>
<path d="M0 0 C0.93423645 3.01031744 1.04449911 3.86650268 0 7 C-0.66 7 -1.32 7 -2 7 C-2.185625 8.6396875 -2.185625 8.6396875 -2.375 10.3125 C-3 14 -3 14 -5 17 C-5.17035878 19.80947611 -5.23279109 22.50683616 -5.1875 25.3125 C-5.18685547 26.05951172 -5.18621094 26.80652344 -5.18554688 27.57617188 C-5.1520172 31.81953871 -4.83025786 35.82214243 -4 40 C-7.40579978 37.03843497 -7.8589429 34.64412459 -8.23828125 30.22265625 C-8.49827561 19.1523701 -6.06782734 9.31844913 0 0 Z M-2 10 C-2 13 -2 13 -2 13 Z " fill="#FDD39C" transform="translate(138,127)"/>
<path d="M0 0 C0.99 0 1.98 0 3 0 C3.25 6.625 3.25 6.625 1 10 C-6.04936478 11.50476825 -12.78891285 9.27276515 -19 6 C-19.66 5.34 -20.32 4.68 -21 4 C-20.67 3.01 -20.34 2.02 -20 1 C-18.02 1.99 -16.04 2.98 -14 4 C-14 4.66 -14 5.32 -14 6 C-13.071875 6.2165625 -13.071875 6.2165625 -12.125 6.4375 C-10 7 -10 7 -8 8 C-6.00039988 8.039992 -3.99952758 8.04346799 -2 8 C-1.34 5.36 -0.68 2.72 0 0 Z " fill="#FDCD97" transform="translate(66,75)"/>
<path d="M0 0 C1.125 1.75 1.125 1.75 1.125 5.75 C0.465 5.75 -0.195 5.75 -0.875 5.75 C-1.06835938 5.10546875 -1.26171875 4.4609375 -1.4609375 3.796875 C-2.76208247 1.40648799 -2.76208247 1.40648799 -5.9140625 1.140625 C-7.68910156 1.07101563 -7.68910156 1.07101563 -9.5 1 C-12.655625 0.87625 -12.655625 0.87625 -15.875 0.75 C-16.535 6.03 -17.195 11.31 -17.875 16.75 C-18.535 16.75 -19.195 16.75 -19.875 16.75 C-20.2290919 10.23208608 -19.91401852 5.57478551 -16.875 -0.25 C-2.97050562 -1.98033708 -2.97050562 -1.98033708 0 0 Z " fill="#FDCE9E" transform="translate(83.875,149.25)"/>
<path d="M0 0 C7.244298 2.13766171 13.46718285 5.22684019 20 9 C19.67 10.32 19.34 11.64 19 13 C18.34 13 17.68 13 17 13 C17 12.01 17 11.02 17 10 C15.39125 10.12375 15.39125 10.12375 13.75 10.25 C10 10 10 10 7.5625 8.125 C6 6 6 6 6 4 C5.34 4 4.68 4 4 4 C4 3.34 4 2.68 4 2 C2.68 2 1.36 2 0 2 C0 1.34 0 0.68 0 0 Z " fill="#FAD894" transform="translate(79,134)"/>
<path d="M0 0 C0.99 0 1.98 0 3 0 C3 0.99 3 1.98 3 3 C4.98 3.66 6.96 4.32 9 5 C7.94124926 8.40312738 6.99097846 11.01353231 5 14 C4.01 13.67 3.02 13.34 2 13 C1.34 8.71 0.68 4.42 0 0 Z " fill="#FCD496" transform="translate(105,205)"/>
<path d="M0 0 C0.66 0 1.32 0 2 0 C2 11.22 2 22.44 2 34 C2.99 34.33 3.98 34.66 5 35 C4.67 35.99 4.34 36.98 4 38 C3.01 38 2.02 38 1 38 C-0.58645357 34.82709287 -0.12078213 31.41174616 -0.09765625 27.9296875 C-0.0962413 27.13345978 -0.09482635 26.33723206 -0.09336853 25.51687622 C-0.08776345 22.9695462 -0.07521014 20.42230353 -0.0625 17.875 C-0.05748565 16.14974085 -0.05292263 14.42448033 -0.04882812 12.69921875 C-0.03779237 8.46611209 -0.02052436 4.23307086 0 0 Z " fill="#FDC89A" transform="translate(70,62)"/>
<path d="M0 0 C0.33 0 0.66 0 1 0 C1.2226746 1.43534841 1.42761906 2.87345525 1.625 4.3125 C1.74101563 5.11300781 1.85703125 5.91351563 1.9765625 6.73828125 C2 9 2 9 0 12 C1.65 12.33 3.3 12.66 5 13 C2.70423322 15.29576678 1.09653751 16.0638375 -2 17 C-4.8125 16.625 -4.8125 16.625 -7 16 C-5.49460881 13.49101468 -3.99839145 10.99758718 -2.375 8.5625 C-0.8317931 5.6865235 -0.37488208 3.22398589 0 0 Z " fill="#F8D68E" transform="translate(63,167)"/>
<path d="M0 0 C-1 3 -1 3 -4 4.8125 C-7.29238242 6.73296994 -7.29238242 6.73296994 -7.875 10.25 C-7.91625 11.1575 -7.9575 12.065 -8 13 C-7.34 13 -6.68 13 -6 13 C-5.34 14.65 -4.68 16.3 -4 18 C-7.36573933 16.55754029 -9.75010389 14.916532 -12 12 C-11.83886804 8.70216593 -11.34352455 7.34755811 -9.00390625 4.98046875 C-8.19824219 4.38878906 -7.39257812 3.79710938 -6.5625 3.1875 C-5.75941406 2.58292969 -4.95632812 1.97835937 -4.12890625 1.35546875 C-2 0 -2 0 0 0 Z " fill="#FCD096" transform="translate(167,88)"/>
<path d="M0 0 C5.31048124 3.43619374 6.63455342 8.00329645 8 14 C9.08370044 27.37444934 9.08370044 27.37444934 6 32 C6.02320313 30.92621094 6.04640625 29.85242188 6.0703125 28.74609375 C6.08908624 27.30990285 6.1072847 25.87370435 6.125 24.4375 C6.14175781 23.73302734 6.15851563 23.02855469 6.17578125 22.30273438 C6.22015077 17.48864166 5.66911423 13.53462152 4 9 C3.34 8.67 2.68 8.34 2 8 C1.67 7.01 1.34 6.02 1 5 C0.34 5 -0.32 5 -1 5 C-0.67 3.35 -0.34 1.7 0 0 Z " fill="#FCD19D" transform="translate(125,20)"/>
<path d="M0 0 C0.33 0 0.66 0 1 0 C1.12117188 0.68707031 1.24234375 1.37414062 1.3671875 2.08203125 C1.53476563 2.98308594 1.70234375 3.88414062 1.875 4.8125 C2.03742188 5.70582031 2.19984375 6.59914062 2.3671875 7.51953125 C2.91188449 10.22727846 2.91188449 10.22727846 5 13 C5.04898438 12.37351563 5.09796875 11.74703125 5.1484375 11.1015625 C5.22320312 10.28429687 5.29796875 9.46703125 5.375 8.625 C5.44460937 7.81289062 5.51421875 7.00078125 5.5859375 6.1640625 C6 4 6 4 8 2 C8 7.28 8 12.56 8 18 C7.01 18 6.02 18 5 18 C-1.49635036 6.95620438 -1.49635036 6.95620438 -1 1 C-0.67 0.67 -0.34 0.34 0 0 Z " fill="#FBD0A0" transform="translate(85,179)"/>
<path d="M0 0 C0 0.66 0 1.32 0 2 C-0.639375 2.12375 -1.27875 2.2475 -1.9375 2.375 C-2.618125 2.58125 -3.29875 2.7875 -4 3 C-4.33 3.66 -4.66 4.32 -5 5 C-4.15695313 5.06058594 -3.31390625 5.12117188 -2.4453125 5.18359375 C-0.80175781 5.30927734 -0.80175781 5.30927734 0.875 5.4375 C2.51082031 5.55931641 2.51082031 5.55931641 4.1796875 5.68359375 C7 6 7 6 9 7 C9 7.66 9 8.32 9 9 C8.33613281 8.83628906 7.67226563 8.67257813 6.98828125 8.50390625 C3.37116663 7.89396143 -0.15860708 7.89204487 -3.8125 7.9375 C-4.50537109 7.94201172 -5.19824219 7.94652344 -5.91210938 7.95117188 C-7.60811068 7.96286844 -9.30406703 7.98080076 -11 8 C-11.33 7.34 -11.66 6.68 -12 6 C-8.82952065 2.30110743 -4.90226152 0 0 0 Z " fill="#FDC79A" transform="translate(31,86)"/>
<path d="M0 0 C0.66 0 1.32 0 2 0 C0.6342033 7.1324939 -3.06961769 13.15123453 -9.015625 17.4609375 C-10.9375 18.5625 -10.9375 18.5625 -14 20 C-14 19.01 -14 18.02 -14 17 C-13.38125 16.7525 -12.7625 16.505 -12.125 16.25 C-9.5927804 14.76045906 -9.19281342 13.62418952 -8 11 C-7 10 -6 9 -5 8 C-5 7.34 -5 6.68 -5 6 C-4.01 5.67 -3.02 5.34 -2 5 C-0.78130071 2.49552484 -0.78130071 2.49552484 0 0 Z " fill="#FCCE94" transform="translate(180,65)"/>
<path d="M0 0 C-0.63065757 3.21852831 -1.78020695 5.50801069 -3.5625 8.25 C-4.01753906 8.95640625 -4.47257813 9.6628125 -4.94140625 10.390625 C-5.29074219 10.92171875 -5.64007813 11.4528125 -6 12 C-7.109375 8.2734375 -7.109375 8.2734375 -6.125 5.8125 C-5 4 -5 4 -4 3 C-8.19469571 3.59924224 -12.00999834 4.57499941 -16 6 C-16.66 5.34 -17.32 4.68 -18 4 C-16.1291122 3.32187886 -14.25305707 2.6580054 -12.375 2 C-11.33085937 1.62875 -10.28671875 1.2575 -9.2109375 0.875 C-5.98225494 -0.00483564 -3.32755706 -0.15988262 0 0 Z " fill="#FDCC98" transform="translate(186,32)"/>
<path d="M0 0 C-0.1875 1.875 -0.1875 1.875 -1 4 C-4.6617375 6.09242143 -7.84532871 6.19324053 -12 6 C-11.01 6.66 -10.02 7.32 -9 8 C-9 8.66 -9 9.32 -9 10 C-11.4375 9.25 -11.4375 9.25 -14 8 C-14.875 5.9375 -14.875 5.9375 -15 4 C-13.36864049 2.36864049 -11.2909006 2.40923282 -9.0625 2 C-6.02678626 1.44090452 -2.98602302 0 0 0 Z " fill="#F8D195" transform="translate(15,104)"/>
<path d="M0 0 C0.33 0 0.66 0 1 0 C1.33 4.95 1.66 9.9 2 15 C2.66 15 3.32 15 4 15 C4 15.66 4 16.32 4 17 C5.65 16.67 7.3 16.34 9 16 C5.99382731 19.00617269 3.17618402 18.59585316 -1 19 C-2.19127531 14.643098 -1.76679687 11.12042737 -1.0625 6.6875 C-0.86785156 5.43324219 -0.67320312 4.17898437 -0.47265625 2.88671875 C-0.31667969 1.93410156 -0.16070312 0.98148438 0 0 Z " fill="#FBD096" transform="translate(159,47)"/>
<path d="M0 0 C1.32176485 0.90325616 2.63215066 1.82317903 3.9375 2.75 C4.66839844 3.26046875 5.39929688 3.7709375 6.15234375 4.296875 C8.20805399 6.19177915 8.62669176 7.27425729 9 10 C3.22621075 9.5188509 -0.95859836 7.81532819 -6 5 C-2.28272326 3.86416544 -0.52948291 4.33329974 3 6 C2.2575 5.071875 2.2575 5.071875 1.5 4.125 C0 2 0 2 0 0 Z " fill="#F9C595" transform="translate(150,174)"/>
<path d="M0 0 C0.66 0 1.32 0 2 0 C2 2.97 2 5.94 2 9 C3.65 9.33 5.3 9.66 7 10 C6.25 12.9375 6.25 12.9375 5 16 C2.875 16.875 2.875 16.875 1 17 C-0.53266582 13.93466836 -0.10276471 10.73245728 -0.0625 7.375 C-0.05798828 6.66859375 -0.05347656 5.9621875 -0.04882812 5.234375 C-0.03703875 3.48954725 -0.01910324 1.744763 0 0 Z " fill="#F9D78D" transform="translate(71,81)"/>
<path d="M0 0 C1 3 1 3 0.0625 5.125 C-1.86952326 10.35282765 -1.69863299 15.20351518 0.3125 20.375 C1.73528565 22.58822212 3.01230929 24.29626511 5 26 C4.67 26.66 4.34 27.32 4 28 C-4 19.77023499 -4 19.77023499 -4 14 C-3.78449744 8.65553652 -2.70642609 4.70682798 0 0 Z " fill="#FED4A0" transform="translate(102,8)"/>
<path d="M0 0 C3.96 0 7.92 0 12 0 C10.68 0.99 9.36 1.98 8 3 C10.48952921 5.66735273 12.63408134 7.55746343 16 9 C16 9.66 16 10.32 16 11 C11.51400257 9.74809374 8.40652872 8.20614467 5 5 C5 4.34 5 3.68 5 3 C3.35 2.67 1.7 2.34 0 2 C0 1.34 0 0.68 0 0 Z " fill="#F7D58D" transform="translate(119,72)"/>
<path d="M0 0 C7.875 0.875 7.875 0.875 9 2 C14.40652829 2.39446773 19.67403774 1.90654677 25 1 C22.49747735 3.74085814 20.6107047 4.82264804 16.8359375 5.23828125 C10.31908372 5.43482128 5.71703951 4.09327741 0 1 C0 0.67 0 0.34 0 0 Z " fill="#F8CC91" transform="translate(6,114)"/>
<path d="M0 0 C2.64 0.33 5.28 0.66 8 1 C7.5020163 4.73487777 7.12508244 6.81237635 5 10 C4.01 10 3.02 10 2 10 C1.34 6.7 0.68 3.4 0 0 Z " fill="#FBD99C" transform="translate(122,188)"/>
<path d="M0 0 C1.093125 0.495 2.18625 0.99 3.3125 1.5 C3.3125 2.16 3.3125 2.82 3.3125 3.5 C2.3225 3.5 1.3325 3.5 0.3125 3.5 C0.3125 2.84 0.3125 2.18 0.3125 1.5 C-5.77158472 1.30185739 -5.77158472 1.30185739 -11.6875 2.5 C-11.6875 1.84 -11.6875 1.18 -11.6875 0.5 C-14.3275 0.5 -16.9675 0.5 -19.6875 0.5 C-13.70803203 -3.00665061 -6.33428231 -2.38241278 0 0 Z " fill="#F9D194" transform="translate(50.6875,85.5)"/>
<path d="M0 0 C0.99 0.33 1.98 0.66 3 1 C2.67 2.98 2.34 4.96 2 7 C1.401875 7.103125 0.80375 7.20625 0.1875 7.3125 C-2.28243264 8.08876455 -3.32251235 9.07088921 -5 11 C-5.99 10.34 -6.98 9.68 -8 9 C-5.36 6.03 -2.72 3.06 0 0 Z " fill="#F7D48E" transform="translate(181,58)"/>
<path d="M0 0 C0.99 0 1.98 0 3 0 C3.66 4.29 4.32 8.58 5 13 C1.97785139 11.48892569 0.84689022 8.77033533 -1 6 C-1.99 6.66 -2.98 7.32 -4 8 C-2.25 2.25 -2.25 2.25 0 0 Z " fill="#FDDDA0" transform="translate(107,0)"/>
<path d="M0 0 C3.63 0 7.26 0 11 0 C11 0.33 11 0.66 11 1 C10.04287109 1.09087891 10.04287109 1.09087891 9.06640625 1.18359375 C8.24011719 1.26738281 7.41382813 1.35117188 6.5625 1.4375 C5.32693359 1.55931641 5.32693359 1.55931641 4.06640625 1.68359375 C2.01337975 1.78930815 2.01337975 1.78930815 1 3 C0.57744004 6.70645451 0.47888043 10.30226859 1 14 C3.33749166 16.15602694 3.33749166 16.15602694 6 17 C6 17.66 6 18.32 6 19 C3.97954558 18.39816251 1.97888961 17.72693904 0 17 C-1.42597611 14.14804778 -1.1320252 11.67538825 -1.125 8.5 C-1.12757813 7.3346875 -1.13015625 6.169375 -1.1328125 4.96875 C-1 2 -1 2 0 0 Z " fill="#FDD19E" transform="translate(149,133)"/>
<path d="M0 0 C0.66 0 1.32 0 2 0 C1.67 1.65 1.34 3.3 1 5 C0.34 5 -0.32 5 -1 5 C-1.33 6.32 -1.66 7.64 -2 9 C-1.01 8.67 -0.02 8.34 1 8 C1 8.99 1 9.98 1 11 C-1.31 11.33 -3.62 11.66 -6 12 C-5.36567062 8.83548038 -4.26817072 6.48312221 -2.5625 3.75 C-2.13066406 3.04359375 -1.69882812 2.3371875 -1.25390625 1.609375 C-0.84011719 1.07828125 -0.42632812 0.5471875 0 0 Z " fill="#F6CF8C" transform="translate(37,174)"/>
<path d="M0 0 C0.99 0.33 1.98 0.66 3 1 C-0.80568333 6.40161505 -4.6844212 8.98942248 -11 11 C-11.99 11 -12.98 11 -14 11 C-14 10.34 -14 9.68 -14 9 C-13.24074219 8.76925781 -12.48148438 8.53851563 -11.69921875 8.30078125 C-10.20841797 7.81158203 -10.20841797 7.81158203 -8.6875 7.3125 C-7.70136719 6.99925781 -6.71523438 6.68601563 -5.69921875 6.36328125 C-2.489806 4.74231881 -1.54870809 3.18727296 0 0 Z " fill="#FBD095" transform="translate(53,173)"/>
<path d="M0 0 C2.375 0.25 2.375 0.25 5 1 C6.3125 3.0625 6.3125 3.0625 7 5 C5.4828316 6.5171684 3.98676983 6.18722552 1.875 6.3125 C-2.97912139 6.77849565 -5.95755424 8.33370599 -10 11 C-8.90858341 7.72575023 -7.49412906 6.05131354 -4.83203125 3.875 C-2.42822846 2.72691509 -1.17771274 3.03458591 1.375 3.6875 C2.57125 4.120625 3.7675 4.55375 5 5 C3.74458443 2.48916886 2.49936512 2.12874554 0 1 C0 0.67 0 0.34 0 0 Z " fill="#FEC89C" transform="translate(191,88)"/>
<path d="M0 0 C3.67420866 0.30618405 4.78135513 0.75771784 7.3125 3.5625 C8.1478125 4.7690625 8.1478125 4.7690625 9 6 C7.02 5.34 5.04 4.68 3 4 C3.350625 4.9075 3.70125 5.815 4.0625 6.75 C5.00170571 10.00591313 4.95514676 10.92749994 4 14 C3.32739649 12.23141309 2.66211605 10.46003984 2 8.6875 C1.62875 7.70136719 1.2575 6.71523437 0.875 5.69921875 C0 3 0 3 0 0 Z " fill="#FAC89A" transform="translate(139,90)"/>
<path d="M0 0 C0 3.58912412 -0.66436554 4.10857029 -3 6.6875 C-3.556875 7.31011719 -4.11375 7.93273437 -4.6875 8.57421875 C-5.120625 9.04472656 -5.55375 9.51523438 -6 10 C-4.02 10 -2.04 10 0 10 C-3.18762365 12.12508244 -5.26512223 12.5020163 -9 13 C-9.33 12.34 -9.66 11.68 -10 11 C-8.89718873 9.72799029 -7.79269231 8.45744147 -6.6875 7.1875 C-6.07261719 6.47980469 -5.45773438 5.77210937 -4.82421875 5.04296875 C-3.26665665 3.29863261 -1.67341125 1.63221959 0 0 Z " fill="#FBCF94" transform="translate(99,65)"/>
<path d="M0 0 C-0.33 1.65 -0.66 3.3 -1 5 C-1.99 5.33 -2.98 5.66 -4 6 C-4 4.68 -4 3.36 -4 2 C-5.010625 2.474375 -6.02125 2.94875 -7.0625 3.4375 C-10.65922205 4.9936328 -14.09268709 5.6012946 -18 6 C-15.16797039 4.11198026 -12.73974381 3.03898349 -9.5625 1.875 C-8.14130859 1.34519531 -8.14130859 1.34519531 -6.69140625 0.8046875 C-4 0 -4 0 0 0 Z " fill="#FACB9B" transform="translate(127,140)"/>
<path d="M0 0 C0.33 0 0.66 0 1 0 C1.64881524 6.22862628 0.8779141 10.18991141 -2.515625 15.46875 C-4.27788151 17.28665672 -5.53132589 17.62020398 -8 18 C-9.5625 15.625 -9.5625 15.625 -11 13 C-10.67 12.34 -10.34 11.68 -10 11 C-7.525 12.98 -7.525 12.98 -5 15 C-1.65405342 9.81917949 -0.43173504 6.15222436 0 0 Z " fill="#FDCC98" transform="translate(118,25)"/>
<path d="M0 0 C3.8129884 0.39444708 5.49114152 2.24025567 8 5 C8.66 5.66 9.32 6.32 10 7 C8.68 7 7.36 7 6 7 C6 6.34 6 5.68 6 5 C4.68 4.67 3.36 4.34 2 4 C2 6.64 2 9.28 2 12 C-0.12055529 8.46574118 -0.61577388 5.07279689 -1 1 C-0.67 0.67 -0.34 0.34 0 0 Z " fill="#FACB9F" transform="translate(32,31)"/>
<path d="M0 0 C1.23268696 3.69806088 0.59433466 4.84773679 -0.75 8.4375 C-1.09546875 9.38496094 -1.4409375 10.33242188 -1.796875 11.30859375 C-2.9542299 13.89761169 -4.10716441 15.89297512 -6 18 C-6.66 18 -7.32 18 -8 18 C-7.35494404 14.51669784 -6.01782732 11.90567134 -4 9 C-3.34 9 -2.68 9 -2 9 C-1.855625 7.700625 -1.71125 6.40125 -1.5625 5.0625 C-1.125 1.125 -1.125 1.125 0 0 Z " fill="#FDD197" transform="translate(178,44)"/>
<path d="M0 0 C6.56337552 1.56666468 12.41954063 3.11794131 18 7 C18.33 7.99 18.66 8.98 19 10 C17.0625 9.625 17.0625 9.625 15 9 C14.67 8.34 14.34 7.68 14 7 C11.85921976 6.10225345 9.68658768 5.27956604 7.5 4.5 C1.11111111 2.22222222 1.11111111 2.22222222 0 0 Z " fill="#FDD49D" transform="translate(43,38)"/>
<path d="M0 0 C6.0750858 0.71471598 10.28068314 4.36975626 15 8 C14.67 8.66 14.34 9.32 14 10 C7.25 6.25 7.25 6.25 5 4 C2.42938689 3.35232207 2.42938689 3.35232207 0 3 C0 2.01 0 1.02 0 0 Z " fill="#FACB93" transform="translate(161,134)"/>
<path d="M0 0 C2.37674267 4.13865229 2.06247466 7.45496952 1 12 C0.13101362 14.42858824 -0.88269175 16.66822626 -2 19 C-2.33 19 -2.66 19 -3 19 C-2.27637073 12.60794144 -1.19656638 6.31972924 0 0 Z " fill="#FED4A2" transform="translate(117,191)"/>
<path d="M0 0 C0.99 0 1.98 0 3 0 C3.33 0.99 3.66 1.98 4 3 C5.3921875 3.185625 5.3921875 3.185625 6.8125 3.375 C10.62426709 4.12240531 12.7905385 5.860359 16 8 C9.79011871 7.55643705 5.39459439 6.08467498 0 3 C0 2.01 0 1.02 0 0 Z " fill="#FBC396" transform="translate(19,124)"/>
<path d="M0 0 C2.8125 2.5 2.8125 2.5 5 5 C3.783125 4.67 2.56625 4.34 1.3125 4 C-1.87210604 3.19677787 -4.6972843 2.79358027 -8 3 C-8 3.66 -8 4.32 -8 5 C-9.32 5.33 -10.64 5.66 -12 6 C-5.41732283 -0.75590551 -5.41732283 -0.75590551 0 0 Z " fill="#FCD196" transform="translate(52,109)"/>
<path d="M0 0 C0.99 0.33 1.98 0.66 3 1 C2.67 2.32 2.34 3.64 2 5 C1.34 5 0.68 5 0 5 C0 5.66 0 6.32 0 7 C-1.98 7.33 -3.96 7.66 -6 8 C-4.55746343 4.63408134 -2.66735273 2.48952921 0 0 Z " fill="#FAE28C" transform="translate(99,67)"/>
<path d="M0 0 C0.33 0.99 0.66 1.98 1 3 C-1 5 -1 5 -3 7 C-3.6496875 7.8971875 -3.6496875 7.8971875 -4.3125 8.8125 C-6 10 -6 10 -9.6875 9.6875 C-10.780625 9.460625 -11.87375 9.23375 -13 9 C-12.42636719 8.73316406 -11.85273438 8.46632813 -11.26171875 8.19140625 C-8.91513571 6.95529602 -6.91888027 5.54593672 -4.8125 3.9375 C-4.11769531 3.41027344 -3.42289063 2.88304688 -2.70703125 2.33984375 C-1.07033279 1.11021516 -1.07033279 1.11021516 0 0 Z " fill="#FCD495" transform="translate(39,115)"/>
<path d="M0 0 C5.65394631 -0.34615998 9.03006806 0.56574762 14 3 C14 4.65 14 6.3 14 8 C13.67 6.68 13.34 5.36 13 4 C12.39671875 3.96261719 11.7934375 3.92523438 11.171875 3.88671875 C3.23374341 3.23374341 3.23374341 3.23374341 0 0 Z " fill="#FDD59B" transform="translate(54,65)"/>
<path d="M0 0 C0.66 0.33 1.32 0.66 2 1 C-1.88265516 3.77332512 -5.33397091 5.88421043 -10 7 C-12.1796875 6.54296875 -12.1796875 6.54296875 -14 6 C-11.71220962 4.96959833 -9.42048864 3.95047982 -7.125 2.9375 C-6.47402344 2.64294922 -5.82304688 2.34839844 -5.15234375 2.04492188 C-3.45989459 1.30338487 -1.73131425 0.64560999 0 0 Z " fill="#FACE94" transform="translate(55,125)"/>
<path d="M0 0 C0.66 0.33 1.32 0.66 2 1 C2 6.94 2 12.88 2 19 C1.67 19 1.34 19 1 19 C0.67 14.05 0.34 9.1 0 4 C-0.99 4.66 -1.98 5.32 -3 6 C-1.125 1.125 -1.125 1.125 0 0 Z " fill="#FCC699" transform="translate(144,117)"/>
<path d="M0 0 C0.99 0 1.98 0 3 0 C2.30058404 3.14737182 1.23921302 6.02588876 0 9 C-1.32 8.67 -2.64 8.34 -4 8 C-3.67 7.34 -3.34 6.68 -3 6 C-2.34 6.33 -1.68 6.66 -1 7 C-1.020625 6.030625 -1.04125 5.06125 -1.0625 4.0625 C-1 1 -1 1 0 0 Z " fill="#FDDD9C" transform="translate(155,36)"/>
<path d="M0 0 C2.475 0.99 2.475 0.99 5 2 C5 2.66 5 3.32 5 4 C6.2065625 4.185625 6.2065625 4.185625 7.4375 4.375 C8.7059375 4.684375 8.7059375 4.684375 10 5 C10.33 5.66 10.66 6.32 11 7 C7.53494217 7.39600661 6.21827567 7.14386351 3.25 5.1875 C1 3 1 3 0 0 Z " fill="#FCD493" transform="translate(136,171)"/>
<path d="M0 0 C3.3 1.65 6.6 3.3 10 5 C9.67 6.32 9.34 7.64 9 9 C8.34 9 7.68 9 7 9 C7 7.68 7 6.36 7 5 C5.5459375 4.5978125 5.5459375 4.5978125 4.0625 4.1875 C3.051875 3.795625 2.04125 3.40375 1 3 C0.67 2.01 0.34 1.02 0 0 Z " fill="#F9C196" transform="translate(89,138)"/>
<path d="M0 0 C0.66 0.33 1.32 0.66 2 1 C0.92319498 2.13125022 -0.16175635 3.25474919 -1.25 4.375 C-1.85328125 5.00148438 -2.4565625 5.62796875 -3.078125 6.2734375 C-4.9700588 7.97310161 -6.68201309 8.98459866 -9 10 C-7.61811547 6.78956118 -6.07578097 4.95063635 -3.375 2.75 C-2.74335938 2.22921875 -2.11171875 1.7084375 -1.4609375 1.171875 C-0.73777344 0.59179688 -0.73777344 0.59179688 0 0 Z " fill="#FDD49A" transform="translate(147,38)"/>
<path d="M0 0 C0 0.66 0 1.32 0 2 C-0.5775 2.0825 -1.155 2.165 -1.75 2.25 C-4.60798931 3.2026631 -5.92954588 4.86053074 -8 7 C-8.66 7 -9.32 7 -10 7 C-9.875 5.1875 -9.875 5.1875 -9 3 C-5.79116175 1.04679411 -3.7794561 0 0 0 Z " fill="#F7CA8F" transform="translate(31,86)"/>
<path d="M0 0 C3.465 1.485 3.465 1.485 7 3 C7 3.66 7 4.32 7 5 C8.32 5.33 9.64 5.66 11 6 C4.67741935 6.36476427 4.67741935 6.36476427 1.5625 4.6875 C0 3 0 3 0 0 Z " fill="#F6D491" transform="translate(45,76)"/>
<path d="M0 0 C0.99 0.33 1.98 0.66 3 1 C-0.96 4.465 -0.96 4.465 -5 8 C-5.66 7.67 -6.32 7.34 -7 7 C-4.78071806 4.09197539 -3.07030857 2.04687238 0 0 Z " fill="#FCCF92" transform="translate(178,99)"/>
<path d="M0 0 C1.32 0.33 2.64 0.66 4 1 C3.67 1.66 3.34 2.32 3 3 C3.66 3 4.32 3 5 3 C6.38232443 4.62626404 7.71937515 6.2925002 9 8 C8.67 8.66 8.34 9.32 8 10 C6.65787938 8.90653119 5.32652025 7.7998425 4 6.6875 C3.2575 6.07261719 2.515 5.45773438 1.75 4.82421875 C0 3 0 3 0 0 Z " fill="#FECDA5" transform="translate(58,34)"/>
<path d="M0 0 C1.32 0 2.64 0 4 0 C4.33 0.99 4.66 1.98 5 3 C4.01 4.485 4.01 4.485 3 6 C2.01 6 1.02 6 0 6 C0 4.02 0 2.04 0 0 Z " fill="#F5D093" transform="translate(124,192)"/>
<path d="M0 0 C3 3 6 6 9 9 C8.67 9.66 8.34 10.32 8 11 C7.21625 10.360625 6.4325 9.72125 5.625 9.0625 C3.20460719 7.01857687 3.20460719 7.01857687 1 6 C0.375 2.9375 0.375 2.9375 0 0 Z " fill="#FDDAA6" transform="translate(108,179)"/>
<path d="M0 0 C0 2.97 0 5.94 0 9 C-0.33 9 -0.66 9 -1 9 C-1 7.35 -1 5.7 -1 4 C-1.66 4 -2.32 4 -3 4 C-3 4.66 -3 5.32 -3 6 C-4.32 6.33 -5.64 6.66 -7 7 C-5.80061288 4.10148113 -3.63852862 0 0 0 Z " fill="#FCD790" transform="translate(145,120)"/>
<path d="M0 0 C1.65 1.32 3.3 2.64 5 4 C4.6875 5.875 4.6875 5.875 4 8 C3.01 8.66 2.02 9.32 1 10 C1.020625 9.0925 1.04125 8.185 1.0625 7.25 C1.0110245 4.57327412 0.7784983 2.53011948 0 0 Z " fill="#FDCC98" transform="translate(57,114)"/>
<path d="M0 0 C1.75 0.125 1.75 0.125 4 1 C6.25 4.0625 6.25 4.0625 8 7 C7.67 7.66 7.34 8.32 7 9 C5.83037314 7.69013727 4.66437056 6.3770374 3.5 5.0625 C2.8503125 4.33160156 2.200625 3.60070312 1.53125 2.84765625 C0 1 0 1 0 0 Z " fill="#FCD199" transform="translate(151,119)"/>
<path d="M0 0 C-2.29576678 2.29576678 -3.90346249 3.0638375 -7 4 C-9.8125 3.625 -9.8125 3.625 -12 3 C-8.62446616 -0.37553384 -4.59080647 -0.1311659 0 0 Z " fill="#FABE95" transform="translate(68,180)"/>
<path d="M0 0 C1.12894876 0.93274109 2.25300876 1.87140122 3.375 2.8125 C4.00148437 3.33457031 4.62796875 3.85664062 5.2734375 4.39453125 C7 6 7 6 9 9 C6.6875 8.8125 6.6875 8.8125 4 8 C2.06208579 5.36997358 1.03295481 3.09886444 0 0 Z " fill="#FDCE98" transform="translate(148,96)"/>
<path d="M0 0 C2.92879371 0.62759865 5.36095629 1.58622659 8 3 C8 3.66 8 4.32 8 5 C5.625 5.1875 5.625 5.1875 3 5 C1 2 1 2 0 0 Z " fill="#F2CD83" transform="translate(188,88)"/>
<path d="M0 0 C0.99 0.33 1.98 0.66 3 1 C2.67 2.98 2.34 4.96 2 7 C1.34 6.67 0.68 6.34 0 6 C0 5.34 0 4.68 0 4 C-0.66 4 -1.32 4 -2 4 C-1.34 2.68 -0.68 1.36 0 0 Z " fill="#FBCC96" transform="translate(181,58)"/>
<path d="M0 0 C0.33 1.32 0.66 2.64 1 4 C-0.32 4 -1.64 4 -3 4 C-3.66 3.01 -4.32 2.02 -5 1 C-3 0 -3 0 0 0 Z " fill="#F7CB8D" transform="translate(182,155)"/>
<path d="M0 0 C0.66 1.32 1.32 2.64 2 4 C-1 6 -1 6 -3 6 C-2.625 3.5625 -2.625 3.5625 -2 1 C-1.34 0.67 -0.68 0.34 0 0 Z " fill="#F9D58C" transform="translate(41,142)"/>
<path d="M0 0 C0.33 0.66 0.66 1.32 1 2 C-0.25 5.0625 -0.25 5.0625 -2 8 C-2.99 8.33 -3.98 8.66 -5 9 C-4.42647107 5.12867972 -2.51295648 2.91827204 0 0 Z " fill="#FED29E" transform="translate(165,38)"/>
<path d="M0 0 C0.33 1.32 0.66 2.64 1 4 C2.32 4.33 3.64 4.66 5 5 C2.69 5.33 0.38 5.66 -2 6 C-1.49396008 3.83125748 -1.00016187 2.00032373 0 0 Z " fill="#F9BE97" transform="translate(33,180)"/>
<path d="M0 0 C2.0625 0.4375 2.0625 0.4375 4 1 C4 1.99 4 2.98 4 4 C2.68 4 1.36 4 0 4 C-0.99 4.66 -1.98 5.32 -3 6 C-1.125 1.125 -1.125 1.125 0 0 Z " fill="#FDD4A1" transform="translate(103,175)"/>
<path d="M0 0 C0.33 0.99 0.66 1.98 1 3 C-2.81756824 4.37432457 -6.07255329 3.67975039 -10 3 C-10 2.67 -10 2.34 -10 2 C-6.7 1.34 -3.4 0.68 0 0 Z " fill="#EBC181" transform="translate(194,124)"/>
<path d="M0 0 C3.02419525 0.58803797 6.01758453 1.22678118 9 2 C5.21812119 3.83691257 3.05431692 4.15837626 -1 3 C-0.67 2.01 -0.34 1.02 0 0 Z " fill="#FCC5A2" transform="translate(90,74)"/>
<path d="M0 0 C0.99 0 1.98 0 3 0 C3 1.98 3 3.96 3 6 C2.67 5.34 2.34 4.68 2 4 C0.02 4.99 0.02 4.99 -2 6 C-1.34 4.02 -0.68 2.04 0 0 Z " fill="#FACB9E" transform="translate(90,19)"/>
<path d="M0 0 C-0.33 2.64 -0.66 5.28 -1 8 C-1.99 7.67 -2.98 7.34 -4 7 C-4 3 -4 3 -2.5625 1.25 C-1 0 -1 0 0 0 Z " fill="#FEDA9A" transform="translate(84,156)"/>
<path d="M0 0 C2.475 0.495 2.475 0.495 5 1 C5 1.66 5 2.32 5 3 C5.99 3.33 6.98 3.66 8 4 C7.67 4.99 7.34 5.98 7 7 C5.83040013 6.02433888 4.66438823 5.044375 3.5 4.0625 C2.8503125 3.51722656 2.200625 2.97195312 1.53125 2.41015625 C1.0259375 1.94480469 0.520625 1.47945313 0 1 C0 0.67 0 0.34 0 0 Z " fill="#FBCF93" transform="translate(40,95)"/>
<path d="M0 0 C0.99 0.33 1.98 0.66 3 1 C-0.465 3.97 -0.465 3.97 -4 7 C-2.92598892 4.08482708 -2.22189824 2.22189824 0 0 Z " fill="#FED39C" transform="translate(104,54)"/>
<path d="M0 0 C3.53600465 1.91135386 5.78972846 3.62642766 8 7 C6.68 7 5.36 7 4 7 C3.566875 6.0409375 3.566875 6.0409375 3.125 5.0625 C2.17176549 2.84793921 2.17176549 2.84793921 0 2 C0 1.34 0 0.68 0 0 Z " fill="#FDD79F" transform="translate(72,39)"/>
</svg>
